<?xml version="1.0" encoding="utf-8"?>
<!-- Generator: Adobe Illustrator 15.1.0, SVG Export Plug-In . SVG Version: 6.00 Build 0)  -->
<!DOCTYPE svg PUBLIC "-//W3C//DTD SVG 1.1//EN" "http://www.w3.org/Graphics/SVG/1.1/DTD/svg11.dtd" [
	<!ENTITY ns_flows "http://ns.adobe.com/Flows/1.0/">
	<!ENTITY ns_extend "http://ns.adobe.com/Extensibility/1.0/">
	<!ENTITY ns_ai "http://ns.adobe.com/AdobeIllustrator/10.0/">
	<!ENTITY ns_graphs "http://ns.adobe.com/Graphs/1.0/">
	<!ENTITY ns_vars "http://ns.adobe.com/Variables/1.0/">
	<!ENTITY ns_imrep "http://ns.adobe.com/ImageReplacement/1.0/">
	<!ENTITY ns_sfw "http://ns.adobe.com/SaveForWeb/1.0/">
	<!ENTITY ns_custom "http://ns.adobe.com/GenericCustomNamespace/1.0/">
	<!ENTITY ns_adobe_xpath "http://ns.adobe.com/XPath/1.0/">
]>
<svg version="1.1"
	 xmlns:x="&ns_extend;" xmlns:i="&ns_ai;" xmlns:graph="&ns_graphs;" i:viewOrigin="0 576" i:rulerOrigin="0 0" i:pageBounds="0 576 576 0"
	 xmlns="http://www.w3.org/2000/svg" xmlns:xlink="http://www.w3.org/1999/xlink" xmlns:a="http://ns.adobe.com/AdobeSVGViewerExtensions/3.0/"
	 x="0px" y="0px" width="576px" height="576px" viewBox="0 0 576 576" enable-background="new 0 0 576 576" xml:space="preserve">
<metadata>
	<variableSets  xmlns="&ns_vars;">
		<variableSet  locked="none" varSetName="binding1">
			<variables></variables>
			<v:sampleDataSets  xmlns:v="&ns_vars;" xmlns="&ns_custom;"></v:sampleDataSets>
		</variableSet>
	</variableSets>
</metadata>
<g id="Layer_3" i:layer="yes" i:dimmedPercent="50" i:rgbTrio="#4F00FFFF4F00">
	<path i:knockout="Off" fill="#a85b0a" d="M127.732,331.6c0.387-0.467,1.021-0.801,1.813-1.209
		c0.294,0.664,0.423,1.492,1.208,1.662c0.86-0.298,0.74-1.577,0.756-2.72c-0.239-0.516-1.039-0.472-1.359-0.906
		c-0.055-1.093,1.384-1.221,1.662-1.511c0.458-0.056,0.313,0.492,0.453,0.755c0.667-0.492,0.707-2.412,0.604-3.173
		c2.174-0.16,3.029-2.328,2.721-4.834c0.259-0.273,0.594,0.046,0.604,0.453c2.015-0.701,0.637-3.469,1.512-4.684
		c0.629,0.147,1.12-0.012,1.51,0.604c0.375-0.181,0.592-0.517,0.756-0.906c-0.227-0.802-0.764-1.136-0.604-1.964
		c-0.646-0.33-1.967-0.198-2.115,0.453c-0.406-0.249-0.67-0.641-1.059-0.907c-1.054,0.586-0.665,1.655-0.906,2.871
		c-0.427-0.125-0.392,0.213-0.755,0.151c0.13,0.906,0.721,0.29,0.906,1.359c-0.579-0.276-1.206-0.506-1.208-1.359
		c-0.703,0.466-0.381,2.027-0.907,2.267c0.024,0.177,0.275,0.127,0.453,0.15c-0.216,0.59-0.503,1.108-1.058,1.36
		c0.53,0.518,0.293,1.266-0.151,1.359c0.165,0.339,0.742,0.266,0.907,0.604c0.02,0.373,0.022,0.728-0.151,0.906
		c-0.737-0.169-1.129-0.684-1.208-1.511c0.198-0.344,0.803-0.782,0.452-1.208c-0.594,0.051-0.179-0.684-0.906-0.604
		c0.439-0.518,0.675-1.239,0.604-2.267c-2.576-0.404-2.375,4.344-4.381,3.777c0.006,0.588,0.418,0.184,0.452,1.209
		c-0.968,0.111-0.424-1.289-1.208-1.36c0.398-3.137,3.733-4.221,2.568-8.008c1.007-0.878,2.346-1.633,1.964-3.475
		c0.65-1.264,1.193-2.635,1.964-3.777c-1.928-1.868,0.989-3.303,1.662-4.836c0.553-0.099,0.58,0.328,1.059,0.303
		c1.09-0.736,0.311-3.327,2.115-2.72c0.431-0.776-0.559-1.825-1.209-2.417c-0.037-0.265-0.562,0.227-0.756,0.303
		c-0.412-0.326,0.029-1.069,0.604-0.907c-0.428-0.198,0.054-0.98-0.754-1.058c0.066,0.692-0.893,1.068-1.361,1.662
		c0.459,0.282,0.366,0.179,0.454,0.755c-0.726-1.131-0.927,0.767-1.208,1.36c-0.38,0.229-0.455-1.201,0-0.756
		c0.044-0.649-0.718-0.491-0.907-0.906c0.371-0.278,1.356-1.401,1.661-0.756c0.46-0.187-0.163-0.52,0-0.906
		c0.045-0.761,0.756-0.855,0.605-1.812c0.338-0.383,1.189-0.484,0.906-1.058c0.365,0.188,0.734,0.373,1.209,0.452
		c0.198-0.053,0.237-0.266,0.453-0.302c0.041-0.796-0.67-0.841-0.756-1.511c0.349-0.206,0.843-0.265,0.756-0.906
		c1.373,0.2,1.283-1.646,2.115-1.512c-0.138-0.265-0.529-0.275-0.756-0.453c0.824-1.553-0.58-1.966-0.303-3.777
		c0.486-0.132,0.314,0.393,0.605,0.454c0.39-0.517,0.821-0.992,0.756-1.964c-0.729-0.259-1.069,0.811-1.209-0.151
		c-0.076,0.426-0.566,0.351-0.303,0.453c-1.908-1.126,2.517-2.588,1.662-4.986c0.811-0.23,1.734-0.894,0.907-1.511
		c-0.994-0.142-1.183,0.463-1.512,0.604c0.125-0.428-0.213-0.392-0.151-0.756c2.285-0.032,1.765-2.869,2.871-4.079
		c0.271,0.326,0.266,0.693,0.151,1.058c0.736-0.281,0.695,0.062,1.058,0.453c0.274-0.179,0.119-0.788,0.302-1.058
		c-0.062-0.34-0.828,0.022-0.755-0.453c0.233-1.26,1.758-1.752,1.359-3.173c1.549-1.775,2.185-4.463,3.626-6.346
		c0.052-1.157,0.438-1.98,1.512-2.115c-0.643,0.637-0.237,1.275-0.151,1.964c0.631-0.023,0.566-0.742,0.755-1.209
		c0.025-0.598-0.231,0.049-0.453-0.302c0.546-1.418,1.286-2.644,2.267-3.626c-0.168-2.172-0.56-3.815,1.512-4.23
		c-0.014,0.214-0.025,0.428,0.15,0.452c0.141-0.085,0.229-0.42,0.302-0.15c0.586-1.406,2.431-2.389,3.173-3.627
		c0.728-1.212,0.683-2.872,2.115-3.474c-0.316-0.49-0.726-0.887-1.359-1.059c1.106-2.929,4.772-4.546,4.532-7.856
		c0.736-0.232,0.454,0.554,0.756,0.755c0.86-1.718,0.003-3.695,0.453-5.59c0.515-2.161,3.089-1.624,4.23-3.324
		c0.335-0.083,0.216,0.289,0.454,0.303c0.128-0.274,0.389-0.417,0.452-0.756c0.573,0.32,1.076-0.183,0.756-0.755
		c0.734-0.986,2.253-1.082,2.568-2.115c0.122,0.13,0.414,0.089,0.454,0.302c1.062-1.204,2.841-1.691,3.625-3.173
		c1.47,0.008,1.963-0.959,2.569-1.813c-0.532-1.448-0.001-2.29,0.302-3.626c-0.535-0.14-1.497,0.066-2.115,0.151
		c0.393-0.329,0.246-0.493-0.302-0.906c0.128-0.979,0.269-1.948,0.906-2.418c-0.919-1.935-0.171-4.765,0.303-6.648
		c0.267-0.136,0.468-0.338,0.604-0.604c0.06-3.673,1.086-6.984,3.173-8.31c1.886-1.197,2.68-3.158,2.447-3.437
		c-0.867-1.04-2.451-2.367-3.783-4.233c-1.101-1.54-4.087-2.456-1.837-5.778c-0.734-0.608-0.019-1.258-0.151-1.511
		c-0.518-0.514-0.16,0.259-0.604,0.151c-0.465-1.346,1.498-1.504,1.965-2.417c-0.039-0.666-0.242-1.169-0.152-1.964
		c0.218-0.085,0.369-0.236,0.454-0.454c0.597,0.142,0.876,0.118,1.359-0.151c1.058-0.767,0.91-1.983,1.813-2.87
		c1.393-1.37,3.967-0.809,5.74-1.662c0.585-0.081,0.738,0.269,1.361,0.151c1.379-1.139-1.026-4.648-2.115-5.892
		c-2.845-3.247-5.661-4.66-6.282-9.245c-0.411-3.026-0.175-7.448,2.655-9.34c6.118-4.407,15.761-5.291,22.513-9.065
		c3.759-1.261,8.441-2.148,11.483-4.079c0.795-0.505,1.905-1.368,1.812-2.569c0.301-0.505,0.699-0.912,1.058-1.36
		c0.492-2.331,1.336-4.234,0.906-6.497c-0.318-1.677-1.661-3.04-1.964-5.137c-0.251-1.737-0.913-3.233-0.604-5.288
		c0.615,0.011,0.716-0.493,1.511-0.302c0.268-0.136,0.192-0.613,0.756-0.453c3.603-4.909,6.671-10.353,11.936-13.599
		c1.679-0.639,3.052-1.583,4.08-2.871c0.474-0.079,0.842-0.265,1.208-0.453c3.771-1.935,8.053-9.34,11.552-12.595
		c3.942-3.667,9.238-7.746,14.197-9.956c25.475-11.355,51.425,1.467,73.021,15.403c13.54,8.737,26.258,19.462,35.514,32.765
		c3.062,4.401,6.557,8.786,8.345,14.118c2.939,8.761,4.937,16.439,6.045,25.535c0.402,3.305-0.224,14.812,3.021,16.621
		c-1.366,2.659,2.243,1.806,1.964,4.23c-0.244,0.209-0.371,0.534-0.906,0.453c0.382,0.695-0.235,2.034-0.755,2.72
		c0.607,1.38,2.326,3.59,0.453,4.835c0.07,1.492-0.139,0.916-0.302,2.266c0.761,0.883,0.303,2.115,0.906,3.022
		c0.088,5.403,0.472,10.796-0.057,16.016c-0.598,0.813-1.143,1.678-1.813,2.417c0.23,1.489-0.426,2.092-0.907,2.871
		c0.128,0.578,0.198,1.213,0.151,1.964c-0.104,0.601-0.664,0.746-0.906,1.209c0.08,1.238-0.389,1.928-1.058,2.418
		c0.094,1.617-0.763,3.559-0.906,5.438c0.365,1.665-0.646,2.881-1.058,4.231c-0.084,0.334,0.288,0.215,0.302,0.452
		c-0.144,2.325-1.07,3.865-1.511,5.893c-3.13,3.761-3.889,9.397-5.676,13.819c-2.397,5.932-5.469,10.644-9.098,15.902
		c-4.017,5.822-7.396,10.355-8.438,20.139c-0.097,0.907,3.738,2.238,4.441,2.792c2.262,1.783,4.292,3.917,6.135,6.122
		c1.023,1.225,2.406,2.064,3.472,3.237c2.048,2.255,3.782,5.617,5.299,8.259c5.747,9.986,15.921,15.432,23.023,24.137
		c11.269,13.812,19.664,30.396,25.611,47.138c2.852,8.026,5.392,15.553,8.729,23.291c4.382,10.161,6.829,20.752,9.999,31.292
		c6.908,22.975,12.185,23.683,17.806,68.734c-96.402,0-202.11,0-298.516,0c2.281-5.269,4.47-10.921,6.798-16.318
		c2.793-6.472,4.377-13.214,7.442-19.572c10.361-21.47,17.986-39.887,22.928-63.226c0.952-4.498,2.624-8.759,3.323-13.144
		c3.13-9.361,5.572-19.408,9.52-27.952c0.473-3.053,2.416-5.44,2.719-8.159c1.856-1.065,1.492-4.351,3.324-5.438
		c-0.04-0.545,0.279-0.729,0.303-1.209c0.917-0.104,0.818-1.121,1.209-1.663c0.3-0.415,0.899-0.659,1.208-1.058
		c0.595-0.765,0.812-1.79,1.359-2.567c0.7-0.992,1.443-1.854,2.115-2.871c1.423-2.149,3.372-3.889,5.138-5.591
		c0.145-0.561,0.287-1.123,0.604-1.511c2.372-1.002,3.645-3.104,4.985-5.137c0.303,0,0.605,0,0.906,0
		c1.146-1.369-0.143-2.593,0.303-3.777c-1.012-0.099-2.024-0.591-2.266-1.662c-0.62,0.477-0.623,1.536-1.813,1.058
		c-0.396,0.201-0.288,0.671-0.151,1.058c-0.844,0.566-2.078,0.741-2.568,1.662c0.626,0.683,0.651,1.968,1.662,2.267
		c-0.694,0.665-1.229,1.491-1.964,2.115c-0.071-1.064,1.47-3.311-0.756-3.022c-0.038,0.467-0.28,0.584-0.755,0.151
		c-0.672,0.398-0.756,0.872-0.756,1.662c-0.906,0.454-1.719,1.001-2.115,1.964c-0.362-0.091-0.689-0.217-1.209-0.15
		c-0.993,0.496-0.298,1.748-0.906,2.568c-0.49-0.055-1.231-0.16-1.662-0.604c-0.691,0.248-0.89,0.596-0.907,1.209
		c-0.35-0.44-0.678-0.027-0.906-0.454c-1.634,0.755-1.916,1.925-3.324,2.872c-0.646-0.637-1.51,0.285-2.115-0.303
		c-1.013,0.713-3.003,1.036-2.72,2.568c-1.43,0.474-2.219,1.633-1.661,3.021c-0.53,0.175-0.646,0.764-1.36,0.756
		c0.216,0.555,1.48,0.844,0.453,1.359c0.4,0.333,0.949-0.058,0.605,0.756c0.258,0.006,0.391-0.112,0.452-0.303
		c-0.165,0.431-0.601,2.105,0.303,2.569c-0.669,0.086-0.452,1.058-1.209,1.058c-0.255-0.731-1.056-1.101-1.359-1.36
		c-0.453,0.1,0.144,0.322,0,0.604c-0.594-0.158-0.724-0.683-0.151-0.907c-0.257-0.548-0.979-0.631-1.511-0.906
		c-0.239,0.315-0.313,0.795-0.303,1.36c-0.438,0.433-0.993-0.597-1.359,0.303c0.087,0.497,0.57,0.216,0.907,0.15
		c-0.118,0.638-0.706,0.806-1.36,0.907c0.314,0.475,0.615,0.09,1.058,0.301c0.252-0.201,0.234-0.671,0.453-0.906
		c0.221,0.132,0.585,0.12,0.453,0.605c0.469,0.015,0.432-0.476,1.058-0.303c-0.256,0.768-0.1,1.52-0.302,1.964
		c-1.152-0.343-0.607-0.815-1.209-1.511c-0.698,0.376-1.107,0.609-1.209,1.813c0.2-1.438-0.991-1.909-1.662-2.871
		c-0.522,0.133-0.475,0.835-1.058,0.907c0.606,1.219,1.515,2.213,2.569,3.323c-0.436,0.34-0.473,0.201-0.604,0.907
		c-0.618,0.043-1.056-0.152-1.813,0.301c0.282,0.77-0.035,1.916-0.151,2.419c-0.697-0.105-1.138,0.71-1.812,1.058
		c-0.169-0.738-0.917-0.897-1.36-1.361c-0.425-0.007-0.413,0.659-0.756,0.304c-0.086,0.265,0.184,0.887-0.15,0.906
		c0.562,0.704,0.997,0.607,1.813,1.058c0.108,0.764-0.167,1.143-0.454,1.511c-0.352-0.413-1.57-0.062-1.359-0.756
		c-1.027,1.093-3.07,1.501-4.532,1.36c-0.475,0.029-0.02,0.988-0.605,0.906c-0.332-0.014-0.696-0.777-1.208-1.058
		c-0.205,0.157,0.447,1.286,0.302,1.36c-0.218,0.835-0.6-0.41-0.906-0.454c-0.485-0.132-0.313,0.392-0.604,0.454
		c-0.327-0.426-0.936-0.121-1.209-0.303c0.251-0.971,0.757-0.583,1.36-0.302c-0.226-0.687-0.696-1.912-1.663-2.568
		c-0.165-0.721,0.901-0.208,0.907-0.756c-0.005-0.498-0.43-0.578-0.907-0.604c0.059-0.713-0.011-1.297-0.754-1.209
		c-0.634,0.419,0.01,1.172-0.152,2.267c-0.242,0.512-0.935,0.575-1.359,0.906c0.487,0.593,1.292-0.415,1.662,0.604
		c0.006,0.387-0.112,0.185-0.303,0.151c0.479,0.604,0.487,0.872,0.756,1.511c-0.288,0.215-0.656,0.351-1.058,0.453
		c0.27,0.267,0.198,0.965-0.151,1.058c-1.339-0.499-0.968-2.14-1.51-3.173c-0.242,0.658-0.387-0.364-0.454,0.303
		c-0.536-0.169-0.524-0.886-1.058-1.058c-0.53,0.022-0.184,0.924-0.756,0.906c-0.56-0.118-0.862-1.774-0.15-1.813
		c-0.246-0.711-0.67-1.244-1.209-1.661c-0.606,0.158,0.02,0.612-0.151,1.208c-1.558-0.407,0.097-1.97,0.454-2.72
		c0.071-0.474-0.189-0.617-0.454-0.756c0.306-0.384,1.102-0.442,0.604-1.209c-1.195,0.655-1.741,1.849-1.057,2.872
		c-1.076,0.169-0.802-1.013-1.512-1.209c-0.863,0.244-1.178,1.038-2.267,1.058c0,0.251,0,0.503,0,0.756
		c1.074,0.234,1.174,1.444,1.663,2.266c-0.259,0.007-0.393-0.112-0.454-0.302c-0.513,1.706,2.237,1.285,3.173,2.417
		c-0.212,0.44-0.521-0.268-0.906-0.15c-0.825,0.303,0.142,1.129-0.906,1.208c0.427,0.22,0.301,0.824,0.604,0.604
		c0.072,0.208-0.203,0.555,0,1.209c1.127-0.303,0.875-1.112,2.267-1.209c-0.179,0.658-0.646,0.089-0.907,0.604
		c0.084,0.12-0.006,0.882,0,1.058c-0.764,0.584-1.153,0.109-1.963,0.906c-0.281-0.213-0.404-0.811,0.15-0.906
		c-0.017-0.387-0.506-0.3-0.906-0.302c0.002-0.652,0.753-0.558,0.756-1.209c-0.049-0.808-0.966-0.747-1.059-1.511
		c-0.442,0.587-0.431,1.243-1.209,1.812c0.893,0.827,0.382,2.085,0.454,3.022c0.115,0.687-0.965-0.616-0.906,0.453
		c0.114,0.214,0.82,0.487,0.452,1.058c0.564,0.007,1.637-0.17,2.268,0c0.179,1.187-0.847,1.168-1.209,1.812
		c-0.519-0.137-0.977-0.333-1.36-0.604c0.067-0.285-0.205-0.91,0.302-0.755c-0.642-0.495-0.724-0.854-1.208-0.906
		c-1.069-0.114-1.075,1.364-2.267-0.151c-0.645,0.06-0.604,0.806-1.208,0.906c-0.151,0.906,0.763,0.747,0.755,1.511
		c-0.105,0.55-0.678,0.632-0.755,1.209c0.374,0.521,0.898-0.496,1.058-0.151c0.212,1.542-1.697-0.199-2.418-0.453
		c-0.617,0.094-0.087,0.631-0.604,0.604c-1-0.535-0.013-1.832,0-2.72c0.214-0.29,0.734-0.273,1.058-0.453
		c-0.324-0.901-1.352-1.502-2.417-1.209c-0.277-0.378-0.121-1.188-0.906-1.058c-0.11-0.412,0.3-0.304,0.302-0.604
		c-0.878-0.212-0.249-1.036-0.907-1.511c-0.41,0.53-1.418,1.152-1.964,1.058c-0.533,0.045,0.533,0.409,0,0.453
		c-0.881,0.192-0.411-1.246-1.661-1.058c0.581,0.604,0.719,2.829-0.151,3.627c0.104-0.555,0.26-1.149,0-1.662
		c-0.564-0.162-0.432,0.375-0.906,0.302c0.195,0.69-0.376,1.562,0.15,1.662c-0.166,0.301-0.754-0.241-0.906-0.453
		c-0.748,0.081-1.124,0.916-1.813,0.604c-0.305-0.393-0.417-0.949-0.151-1.511c-0.926-0.336-1.348-2.09-2.115-1.662
		c0.449-0.66,0.457-1.76,1.058-2.267c0.542,0.072,0.873,0.245,1.36,0c-0.192-0.852-0.074-2.146,0.755-2.417
		c-0.008-0.747-0.81-0.701-0.604-1.662c-1.72-0.082-3.411-0.785-4.834,0.604c0.116,0.721-0.236,0.972-0.151,1.661
		c-1.117-0.197-2.097-1.258-1.36-2.417c0.78,0.14,1.586,0.288,1.965-0.302c-0.182-0.373-0.615-0.493-0.756-0.907
		c0.445-2-0.833-2.554-0.906-3.928c-1.493,0.228-1.246,2.089-1.662,3.021c0.342,0.53,0.665-0.486,0.906,0
		c0.37,0.544-1.255,1.793-1.662,1.058c-0.609,0.531-0.394,1.478,0,1.964c-0.378-0.025-0.473,0.232-0.604,0.453
		c0.897,0.822,0.793,1.578,0.604,2.569c0.023,0.279,0.513,0.092,0.604,0.302c-0.427,0.178-0.501,0.707-0.604,1.209
		c-0.574,0.331-0.573-0.304-1.209-0.303c-0.63,0.894,0.827,1.505,0.454,2.418c-0.221,0.636-1.387,0.325-1.511,1.058
		c0.468,1.344-0.021,1.521-0.151,2.568c-0.808,0.149-1.271,0.643-1.661,1.209c0.142,1.268,1.338,1.481,1.812,2.417
		c0.842-0.815,1.287-1.889,2.568-1.813c-0.515,0.451-1.369,0.918-0.756,1.662c-0.521,0.184-0.803,0.608-1.359,0.756
		c-0.199,0.379,0.598,0.473,0.151,0.604c-0.767-1.004-2.2,0.087-3.022,0c0.762,1.071-0.288,3.606-1.511,2.266
		c0.097-0.972,0.365-2.304-0.604-2.568c-0.488,0.015-0.322,0.685-1.058,0.453c-0.428-0.439-0.321-1.333,0-1.812
		c-0.011-0.443-0.345-0.561-0.604-0.756c-0.122,0.028-0.15,0.152-0.302,0.151c-0.177,0.592-0.344,1.225,0.15,2.267
		c-1.072-0.612-1.8-0.341-3.021-0.151c-0.214-0.831-1.282-2.406-1.661-0.906c-0.356-0.4-1.174-0.337-1.663-0.604
		c-0.122-0.778,0.122-1.188,0.454-1.511c0.705,0.442,1.314,0.191,1.964-0.151c0.097-0.73-0.2-1.068,0-1.511
		c-0.817-0.179-1.34-1.154-0.906-2.115c-0.074-0.43-0.474-0.535-0.906-0.604c-0.002-0.506,0.382-0.624,0.604-0.906
		c-0.065-0.352-0.667-0.405-0.302-0.756c-0.022-0.337-0.381,0.195-0.756,0c0.433-0.676-0.546-0.33-0.755-0.755
		c0.188-0.895-0.33-1.08-0.604-1.512c-1.133,0.363-1.08,1.436-1.965,2.267c0.039,0.468,0.635,0.832,0.303,1.209
		c0.061,0.192,1.179-0.177,1.209,0.453c0.245-0.762,0.684-1.331,1.511-1.511c-0.496,1.115-0.393,2.831-1.662,3.173
		c0.322-0.613-0.077-1.166-0.907-1.058c0.154-0.198,0.148-0.557,0.303-0.756c-1.207,0.176-1.971,0.819-2.568,1.209
		c-0.601,0.269,0.148-0.622,0.15-0.604c-0.024-0.188-0.344-0.13-0.302,0.151c-0.138-0.92,0.011-1.937-1.209-2.418
		c0.103-0.673,0.433-0.78,0.151-1.511c-1.53,0.216-0.938,1.672-1.965,2.267c-0.58-0.274-0.677-1.035-1.057-1.511
		c-0.521,0.401-1.092,0.9-1.812,0.302c0.05-0.638,0.757-0.786,1.208-0.604c-1.177-0.977,0.371-2.471,0.604-3.475
		c-0.231,0.09-0.701-0.578-0.303-1.058c0.714-0.009,0.859,0.552,1.209,0.906c0.803-0.29,1.123-1.359,1.813-0.604
		c-0.175-0.424-0.175-0.785,0-1.208c-0.047-0.205-0.379-0.126-0.604-0.151c-0.127-1.873-0.896-2.622-2.267-3.476
		c-0.624,0.519-1.464,1.163-1.511,1.812c-0.434,0.212-0.768-0.411-0.906,0c-0.046,0.644,0.806,0.154,1.058,0.151
		c0.38,0.48,0.308,1.35,0.302,1.813c-0.178,0.191-0.628,0.121-0.604-0.302c-0.218,0.548-0.411,0.184-0.605,0.756
		c-0.041,0.357,0.598,0.793,0.605,0.604c0.33,0.293-0.353,0.848-0.756,0.907c-0.4-0.406-0.772-0.84-0.605-1.813
		c-0.455-0.928-2.424-0.584-1.963,0.604c-0.62-0.275-1.359-1.393-0.756-1.965c-0.246-0.258-0.472-0.534-0.756-0.756
		c-0.629-0.075-0.666,0.442-1.359,0.304c0.113-0.491,0.25-0.959,0.906-0.907c-0.191-1.552,1.158-1.561,1.511-2.569
		c0.133-0.484-0.392-0.312-0.452-0.604c-0.407-0.104-0.293,0.312-0.454,0.453c-0.412-0.362-0.603-0.07-0.907-0.604
		c-0.279,0.022-0.092,0.512-0.302,0.604c-0.87-0.428-0.709,0.051-1.511,0.302c0.192-0.584,0.461-0.416,0.906-0.906
		c-0.675-0.143-1.186,0.235-1.359,1.058c-0.834-0.058-0.828-0.058-1.662,0c-0.301-0.757,0.227-0.531,0.453-1.058
		c-0.093,0.21-0.581,0.023-0.604,0.303c-0.806-0.76-0.403-3.149-0.453-4.533c-0.497-0.326-0.889-0.617-1.359-0.604
		c-0.334-1.441,0.622-1.594,1.058-2.267c0.062-0.364-0.276-0.328-0.151-0.755c-0.517,0.144-0.586,0.824-1.209,0.453
		c-0.299-0.343,0.161-0.844,0-1.511c0.202,0,0.403,0,0.604,0c0.057-0.577,0.213-0.585-0.302-0.756
		c0.498-0.798,1.03-0.66,2.115-0.906c-0.123,0.522,0.282,0.639,0,0.906c1.025,0.132,1.009,1.308,1.661,1.813
		c0.819-0.029,0.914-1.446,0.605-2.115c-0.215,0.013-0.429,0.024-0.454-0.151c-0.497,0.01-0.509,0.958-1.058,0.453
		c0.32-0.671,0.846-1.58,0.303-2.267c-0.853,0.387-1.407,0.406-2.115,0.151c0.194-0.661,0.868-0.844,1.511-1.058
		c0.012-0.895,0.257-1.557,0.302-2.417c0.584-0.402,0.596,0.013,1.058-0.15c0.077-0.215,0.688-1.031,0.604-0.907
		c1.209-1.79,1.01,4.367,1.512,4.835c1.173-0.635,1.532-2.563,2.115-3.324c-0.445-0.816-0.15-1.456,0.453-1.964
		c-0.198-0.356-0.467-0.642-0.756-0.906c0.461-1.384,1.693-1.803,1.512-3.476C129.487,331.479,128.829,331.525,127.732,331.6z
		 M152.662,273.278c0.127,0.479,0.441,0.769,0.756,1.058c-0.154-0.657,0.312-0.694,0.453-1.058c-0.481,0.13-0.467-0.237-0.755-0.302
		C153.055,273.166,152.921,273.285,152.662,273.278z M142.086,291.862c-0.025,0.995,0.435,1.194,0.454,1.814
		c0.246-0.846,0.745-1.313,0.604-2.267C142.602,291.371,142.59,291.863,142.086,291.862z M139.82,295.942
		c0.367-0.086,0.777-0.129,0.756-0.604c-0.129-0.225-0.381-0.324-0.756-0.303C139.574,295.441,139.474,295.609,139.82,295.942z
		 M138.158,303.799c0.213-0.482-0.904-0.382-0.906-0.15c0.37,0.532,1.76,0.616,2.266,0.15c-0.01-0.442-0.345-0.561-0.604-0.755
		C138.726,303.359,138.475,303.611,138.158,303.799z M134.078,306.821c0.44-0.114,0.443-1.255-0.15-1.209
		C133.637,305.922,133.825,306.602,134.078,306.821z M136.798,306.217c0,0.503,0,1.007,0,1.511c0.523-0.12,0.638,0.168,0.907,0.303
		c0.388-0.418,0.403-1.209,0.604-1.813C137.697,305.711,137.477,305.86,136.798,306.217z M135.892,310.447
		c0.17,0.031,0.235,0.168,0.302,0.302c0.516,0.012,0.563-0.444,0.756-0.755C136.509,309.598,136.057,310.104,135.892,310.447z
		 M131.963,313.771c-0.26-0.009-0.387,0.115-0.453,0.302c0.235,0.183,0.59,0.483,0.907,0.151c0.004-0.508-0.209-0.8-0.454-1.058
		C131.963,313.368,131.963,313.569,131.963,313.771z M227.905,329.636c-0.79-0.117-0.669-1.144-1.812-0.907
		c-0.241,0.846,0.647,0.562,0.755,1.059c-0.134,0.269-0.422,0.384-0.302,0.906c0.48,0.23,0.665,0.053,1.209,0
		c0.114-0.699-0.577-0.21-0.604-0.453C227.367,330.004,227.938,330.12,227.905,329.636z M133.172,330.844
		c0.513,0.284,1.402-0.152,1.511-0.755c-0.01-0.442-0.345-0.561-0.604-0.756C134.092,330.153,133.417,330.283,133.172,330.844z
		 M202.674,332.053c0.222,0.635,0.823,0.89,1.208,1.36c0.025-0.176,0.239-0.164,0.454-0.151c0.171-0.686,0.564-1.146,0.604-1.964
		C204.119,330.848,203.317,331.079,202.674,332.053z M226.093,332.506c0.253-0.251,0.611-0.395,0.604-0.906
		c-0.585-0.101-0.538,0-0.907-0.151C225.767,331.926,225.785,332.36,226.093,332.506z M131.963,335.075
		c0.314,0.088,0.489,0.317,0.756,0.453c-0.236-0.876,0.653-1.398,0.15-1.813C132.562,334.164,132.153,334.51,131.963,335.075z
		 M199.501,335.528c0.131-0.121,0.683,0.619,0.604,1.208c0.387-0.368,0.951-0.56,1.359-0.906
		C202.449,333.162,198.814,333.35,199.501,335.528z M221.56,335.227c0.756-0.004,0.569,0.486,0.454,1.057
		c1.125-0.353,0.841-1.286,0.906-2.115c-0.208,0.007-0.332-0.071-0.453-0.15C222.274,334.53,221.629,334.59,221.56,335.227z
		 M202.372,336.736c0.456-0.197,0.631-0.678,0.604-1.359c-0.251-0.303-0.405-0.702-0.906-0.756
		C201.98,335.516,202.217,336.086,202.372,336.736z M129.244,335.83c0.473,0.081,0.544,0.563,0.604,1.058
		C131.386,336.565,129.926,334.221,129.244,335.83z M197.688,337.493c0.382-0.224,0.625-0.585,0.756-1.059
		c-0.404-0.209-0.566-0.553-0.302-1.058c-0.286,0.033-0.334-0.17-0.605-0.15C197.191,335.729,196.692,337.369,197.688,337.493z
		 M129.244,337.493c0.201,0,0.402,0,0.604,0c-0.01-0.676-0.346-0.193-0.604-0.454C129.244,337.19,129.244,337.342,129.244,337.493z
		 M202.372,340.666c0.581,0.118,0.581-0.724,0-0.605C202.372,340.262,202.372,340.464,202.372,340.666z M141.18,341.421
		c0.085,0.368,0.769,0.138,0.604,0.755c-0.221-0.216-0.479-0.115-0.453,0.303c0.561,0.374,0.99-0.458,1.058-1.058
		c-0.597,0.193-0.365-0.44-0.755-0.454C141.616,341.253,141.134,341.072,141.18,341.421z M187.716,344.442
		c0.519,0.236,0.717-1.012,0.151-0.906C187.816,344.071,187.451,343.907,187.716,344.442z M204.336,346.104
		c0.253-0.251,0.12-0.888,0.151-1.359c-0.428,0.124-0.392-0.214-0.756-0.151C203.874,345.156,203.777,345.958,204.336,346.104z
		 M206.301,345.197c0.044,0.815,0.556,1.523-0.303,1.965c0.267,0.137,0.468,0.338,0.604,0.604c-0.144,0.311-0.778,0.128-0.756,0.604
		c0.356-0.003,0.445,0.261,0.906,0.151c0.753-0.926,1.033-3.216-0.15-3.626C206.585,345.08,206.557,345.254,206.301,345.197z
		 M130.15,346.406c0.127-0.175,0.199-0.404,0.151-0.755C129.746,345.506,129.701,346.393,130.15,346.406z M128.035,351.091
		c0.021,0.281,0.1,0.505,0.302,0.604c-0.234-0.537,0.514-0.091,0.454-0.452c-0.483-0.53,1.377-2.313,0.302-3.476
		c-0.302,0-0.604,0-0.906,0c-0.415,0.693-0.077,2.139-0.604,2.719c0.221,0.192,0.991,0.607,0.604,0.907
		C128.152,351.275,128.182,351.095,128.035,351.091z M123.805,349.428c0.109,0.345,0.135,0.772,0.302,1.058
		c1.004,0.082,1.092-1.493,0.453-1.812C124.372,348.989,124.121,349.241,123.805,349.428z M205.847,350.033
		c0.092,0.086,0.717,0.354,0.756,0c-0.605-0.194,0.041-0.312,0-0.756C206.291,349.011,205.681,349.36,205.847,350.033z
		 M201.767,350.788c0.92,0.794,2.021,0.291,2.115-0.906C203.334,349.995,201.819,349.29,201.767,350.788z M196.177,350.485
		c0.091,0.816,0.55,1.264,1.359,1.36c0.071-0.474-0.406-0.399-0.452-0.755c0.201,0,0.402,0,0.604,0
		c-0.114-0.541-0.35-0.96-0.906-1.058C196.739,350.344,196.377,350.334,196.177,350.485z M146.468,350.788
		c0.071,0.534-0.247,1.456,0.454,1.36c0.277-0.428,0.78-0.63,0.755-1.36C147.006,350.721,146.877,350.594,146.468,350.788z
		 M199.954,351.543c-0.662-1.003-0.788,0.98-1.964,0.454c-0.466,0.895-1.06,1.661-1.813,2.267c-0.003,0.355,0.261,0.444,0.151,0.906
		c-2.69,0.147-0.973,4.45,1.359,4.382c0.27-0.486,0.249-1.263,0.906-1.359c0.546,0.518,2.219,1.89,2.721,0.604
		c-0.941-0.637,0.056-2.451,0.755-2.871c0.152,0.301,0.262,0.646,0.604,0.756c-0.122-0.633-0.502-1.01-0.907-1.359
		c0.401-0.312-0.048-0.767,0.454-0.756c-0.772-0.596-0.793-2.253-0.303-3.022c-0.845,0.501-0.514-0.96-1.359-0.906
		C200.396,350.979,200.216,351.302,199.954,351.543z M125.315,351.846c-0.39-0.489,0.276-0.188,0.302,0.151
		c0.033-0.118,0.127-0.176,0.303-0.151c-0.087-0.266,0.183-0.888-0.15-0.906C125.328,350.996,124.69,352.067,125.315,351.846z
		 M161.577,352.752c0.628,0.349,0.284,0.432,0.151,1.058c0.572,0.485,1.015,1.101,1.662,1.512c0.139-0.264-0.006-0.812,0.453-0.756
		c0.217,0.236,0.381,0.526,0.756,0.604c0.135-0.317,0.004-0.902,0.604-0.755c-1.046-0.617-1.123-2.201-1.812-3.173
		C162.726,351.685,161.82,351.889,161.577,352.752z M192.854,353.658c0.541,0.09,0.73-0.175,1.057-0.301
		c-0.105,0.464-0.105,0.289,0,0.755c0.603,0.099,0.434-0.574,0.453-1.058c-0.8,0.045-0.416-1.094-1.359-0.906
		C192.848,352.684,192.329,353.284,192.854,353.658z M134.683,353.206c0.446,0.51,0.11,1.804,0.756,2.115
		c0.952-1.078,0.183-2.33-0.302-3.021C134.712,352.529,135.611,353.344,134.683,353.206z M138.763,353.508
		c0.048,0.526-0.058,0.563-0.151,1.511c-0.725-0.057-0.129,0.263-0.604,0.454c0.582,0.072,0.213,1.097,0.906,1.058
		c0.258-0.803,0.635-2.284,0.302-3.173C139.19,353.532,138.977,353.521,138.763,353.508z M174.873,354.565
		c0.654-0.1,0.757,0.352,0.906,0.756c0.79-0.117,1.158-0.655,1.058-1.663C176.251,353.561,174.755,353.495,174.873,354.565z
		 M168.225,354.415c0.4,0.178,0.47,0.13,0.303,0.604c0.676,0.093,0.754-0.948,0.453-1.36c-0.15,0-0.302,0-0.453,0
		C168.64,354.124,168.112,353.949,168.225,354.415z M204.185,354.264c0.101,0.554,0.161,1.148,0.303,1.661
		C206.406,355.929,205.34,352.935,204.185,354.264z M148.13,356.076c0.035-0.811,0.293-1.284-0.302-1.661
		C147.92,354.761,147.323,355.963,148.13,356.076z M135.892,355.17c-0.015,0.468,0.068,0.838,0.302,1.058
		c0.191-0.363,0.195-0.914,0.454-1.209C136.297,354.971,136.067,355.043,135.892,355.17z M167.772,356.681
		c0.331,0.335,0.501-0.265,0.906-0.302c-0.107-0.446-0.042-1.066-0.454-1.209C167.775,355.496,168.281,356.217,167.772,356.681z
		 M172.003,360.609c0.868,0.189,0.773,1.342,1.058,2.115c1.317-0.454,0.004-1.61,0.755-2.72c-0.448-0.055-0.745-0.263-0.906-0.604
		c-0.466-0.112-0.291,0.415-0.756,0.303c-0.091-0.27,0.443-0.628,0-0.756c-0.255,0.725-0.567-0.883-1.511-0.453
		c0.018-0.9-0.744-1.034-1.511-0.756c0.032,1.235,0.792,1.188,0.453,2.418c0.448,0.156,0.822,0.386,0.906,0.906
		c0.487,0.033,0.64-0.268,1.209-0.151c0.333-0.354,0.062-1.208,0.755-0.755C172.049,360.052,172.164,360.469,172.003,360.609z
		 M135.137,361.214c0.355,0.193,0.281-0.021,0.755,0.151c0.155-0.349,0.52-0.487,0.454-1.058c-0.205-0.049-0.289-0.216-0.605-0.151
		C136.029,361.14,135.483,360.601,135.137,361.214z M152.512,362.12c-0.135-0.487,0.492-0.212,0.604-0.453
		c-0.045-0.731-0.153-0.617-0.151-1.511c-0.201,0-0.403,0-0.604,0C152.748,361.214,152.301,361.458,152.512,362.12z
		 M139.367,361.214c0-0.202,0-0.403,0-0.604c-0.152,0-0.303,0-0.454,0C138.871,361.004,138.862,361.365,139.367,361.214z
		 M138.913,361.969c0.234,0.571,0.7,0.912,1.209,1.209c0.288-0.367,0.396-0.914,0.604-1.359
		C139.799,361.418,139.695,362.032,138.913,361.969z M154.476,364.084c-0.41,0.245-0.568,0.741-0.755,1.209
		c0.467,0.144,0.89,0.172,1.209,0.303c-0.023,0.177,0.025,0.429-0.152,0.453c0.001-0.085-0.122-0.172-0.15,0
		c0.201,0.215,0.855,0.215,1.058,0c0.174-0.627-0.317-0.589-0.302-1.058c1.045-0.337,0.494-0.812,0.302-1.662
		c-0.474,0.163-0.835,0.424-1.058,0.151c-0.152-0.455,0.337-0.268,0.604-0.303c-0.27-0.559-0.302-0.567-0.604-0.906
		c-0.002,0.199-0.265,0.138-0.302,0.302c0.26,0.06,0.387-0.225,0.452,0c-0.144,0.434-0.5,0.099-0.604,0.303
		C154.412,363.141,154.376,363.68,154.476,364.084z M169.132,363.329c-0.092-0.312,0.243-1.05-0.302-0.906
		C168.598,362.652,168.561,363.458,169.132,363.329z M182.277,366.804c-0.065-0.417,0.562-0.142,0.604-0.453
		c-0.605-0.347-1.081-1.303-0.756-2.115c-0.504-0.302-1.05-0.562-0.906-1.511c-1.42-1.102-3.336,1.369-1.812,2.871
		c1.145-0.136,1.454,1.361,2.266,1.058c-0.152-0.002-0.189-0.266,0-0.303C182.389,366.219,182.09,366.719,182.277,366.804z
		 M149.489,363.026c-0.223,0.411-0.584,0.684-1.058,0.454c-0.19,0.814-0.553,0.783-0.302,1.812c0.461-0.008,0.362,0.544,0.907,0.453
		c-0.208-0.465-0.043-1.145,0-1.359c0.015,0.388,0.562,0.242,0.755,0.453c0.064-0.288,0.326-0.38,0.303-0.756
		c-0.285-0.328-0.7-0.419-0.907-0.453C149.363,363.583,149.899,363.163,149.489,363.026z M143.446,364.538
		c0.609,0.195,0.707,0.904,1.36,1.058c0.415-0.289,0.792-0.618,1.208-0.907c-0.196-0.579,0.182-0.951-0.453-1.208
		C144.754,363.73,143.941,363.975,143.446,364.538z M138.913,365.142c0.366,0.301,0.669,0.65,0.907,0
		C139.623,364.93,139.021,364.599,138.913,365.142z M151.001,365.596c0.204,0.047,0.288,0.215,0.604,0.15
		c-0.066-0.286,0.206-0.91-0.302-0.755C151.413,365.403,151.003,365.295,151.001,365.596z M153.721,368.466
		c0.422-0.434,0.285-1.427,0.303-2.267C152.906,365.762,152.226,368.476,153.721,368.466z M148.432,371.487
		c0.067-2.15-2.544-1.175-2.567,0.303c0.487,0.116,0.79,0.418,0.906,0.906c-0.482,0.155-0.046,0.857,0,1.36
		C147.147,373.495,148.401,372.476,148.432,371.487z M149.792,371.79c0-0.202,0-0.403,0-0.604c-0.151,0-0.303,0-0.453,0
		C149.296,371.58,149.395,371.835,149.792,371.79z"/>
</g>
</svg>
